<svg xmlns="http://www.w3.org/2000/svg" version="1.1" xmlns:xlink="http://www.w3.org/1999/xlink" width="512" height="512"><svg xmlns="http://www.w3.org/2000/svg" version="1.1" xmlns:xlink="http://www.w3.org/1999/xlink" width="512" height="512"><svg id="Layer_1" enable-background="new 0 0 128 128" height="512" viewBox="0 0 128 128" width="512" xmlns="http://www.w3.org/2000/svg"><path d="m120.418 85.976h-1.366v-1.304c0-4.603-2.119-8.718-5.43-11.429.055-1.014.083-1.906.083-2.756 0-4.991-.704-9.898-2.08-14.597.636-.807 1.129-1.74 1.389-2.789.377-1.494.265-3.047-.323-4.491-7.984-19.629-26.31-32.313-46.687-32.313-20.371 0-38.7 12.684-46.696 32.315-.588 1.452-.699 3.008-.324 4.496.261 1.052.756 1.986 1.395 2.793-1.378 4.716-2.085 9.618-2.085 14.586 0 .842.028 1.734.084 2.755-3.312 2.71-5.431 6.826-5.431 11.429v1.304h-1.366c-2.222 0-4.029 1.808-4.029 4.029v3.209c0 2.222 1.808 4.029 4.029 4.029h1.366v1.304c0 8.142 6.624 14.767 14.767 14.767h1.318c.804 1.42 2.311 2.392 4.056 2.392 2.58 0 4.679-2.099 4.679-4.679v-38.834c0-2.58-2.099-4.679-4.679-4.679-1.745 0-3.252.972-4.056 2.392h-1.318c-.226 0-.446.024-.67.034.05-4.015.642-7.957 1.763-11.737 1.859-.723 3.395-2.177 4.193-4.127 5.725-13.995 18.679-23.039 33.004-23.039s27.279 9.043 33.004 23.039c.797 1.946 2.33 3.399 4.185 4.123 1.12 3.778 1.711 7.722 1.761 11.74-.224-.01-.444-.034-.67-.034h-1.318c-.804-1.42-2.311-2.392-4.056-2.392-2.58 0-4.679 2.099-4.679 4.679v38.835c0 2.58 2.099 4.679 4.679 4.679 1.745 0 3.252-.972 4.056-2.392h1.318c8.143 0 14.767-6.625 14.767-14.767v-1.304h1.366c2.222 0 4.029-1.808 4.029-4.029v-3.209c.001-2.22-1.806-4.028-4.028-4.028z" fill="#e6e7e8" style="--darkreader-inline-fill: var(--darkreader-background-e6e7e8, #1d2934);" data-darkreader-inline-fill=""></path><path d="m61.727 81.453c.984-1.026 2.581-1.639 4.272-1.639s3.288.613 4.272 1.64c.758.789 1.776 1.224 2.87 1.224 1.03 0 2.007-.393 2.752-1.106 1.582-1.518 1.635-4.039.117-5.621-2.49-2.598-6.14-4.087-10.012-4.087s-7.521 1.49-10.012 4.087c-1.518 1.582-1.465 4.104.117 5.622 1.586 1.516 4.109 1.462 5.624-.12z" fill="#e6e7e8" style="--darkreader-inline-fill: var(--darkreader-background-e6e7e8, #1d2934);" data-darkreader-inline-fill=""></path><path d="m66 61.198c-6.38 0-12.455 2.355-16.67 6.461-.76.741-1.187 1.734-1.2 2.796-.015 1.062.387 2.066 1.127 2.826.741.761 1.734 1.188 2.797 1.201h.053c1.042 0 2.025-.4 2.773-1.128 2.742-2.673 6.796-4.206 11.12-4.206s8.378 1.533 11.121 4.206c.747.727 1.732 1.127 2.773 1.127 1.082 0 2.093-.426 2.848-1.201.741-.76 1.143-1.764 1.128-2.826-.014-1.062-.44-2.055-1.2-2.796-4.215-4.105-10.29-6.46-16.67-6.46z" fill="#e6e7e8" style="--darkreader-inline-fill: var(--darkreader-background-e6e7e8, #1d2934);" data-darkreader-inline-fill=""></path><path d="m66 50.532c-8.921 0-17.444 3.246-23.384 8.905-.77.732-1.207 1.721-1.233 2.782-.025 1.062.363 2.07 1.097 2.839.732.769 1.721 1.207 2.782 1.232 1.066.014 2.069-.364 2.838-1.096 4.477-4.264 11-6.71 17.9-6.71s13.423 2.446 17.9 6.711c.742.708 1.716 1.097 2.741 1.097 1.099 0 2.121-.438 2.879-1.233.733-.769 1.122-1.777 1.097-2.839-.026-1.062-.464-2.05-1.233-2.782-5.94-5.66-14.463-8.906-23.384-8.906z" fill="#e6e7e8" style="--darkreader-inline-fill: var(--darkreader-background-e6e7e8, #1d2934);" data-darkreader-inline-fill=""></path><path d="m66.755 89.464-.755.755-.755-.755c-3.566-3.567-9.373-3.567-12.939 0-3.567 3.567-3.567 9.372 0 12.939l11.349 11.349c.646.647 1.496.97 2.346.97s1.699-.323 2.346-.97l11.349-11.349c3.567-3.567 3.567-9.372 0-12.939-3.568-3.568-9.375-3.568-12.941 0z" fill="#e6e7e8" style="--darkreader-inline-fill: var(--darkreader-background-e6e7e8, #1d2934);" data-darkreader-inline-fill=""></path><path d="m9.948 82.976h-2.366c-1.673 0-3.029 1.356-3.029 3.029v3.209c0 1.673 1.356 3.029 3.029 3.029h2.366z" fill="#6dc9f7" style="--darkreader-inline-fill: var(--darkreader-background-6dc9f7, #075e89);" data-darkreader-inline-fill=""></path><path d="m25.41 107.027v-38.835c0-.455.093-.885.244-1.287h-1.94c-7.603 0-13.767 6.164-13.767 13.767v13.876c0 7.603 6.164 13.767 13.767 13.767h1.94c-.151-.403-.244-.833-.244-1.288z" fill="#fa759e" style="--darkreader-inline-fill: var(--darkreader-background-fa759e, #85052c);" data-darkreader-inline-fill=""></path><path d="m22.047 67.016c-.002-.177-.012-.352-.012-.529 0-4.55.68-8.93 1.95-13.04-.58.18-1.19.27-1.81.27h-.01c-1.89 0-3.54-.8-4.68-2.05-1.42 4.67-2.19 9.65-2.19 14.82 0 1.081.046 2.156.112 3.226 1.892-1.437 4.162-2.397 6.64-2.697z" fill="#d4fbff" style="--darkreader-inline-fill: var(--darkreader-background-d4fbff, #00474e);" data-darkreader-inline-fill=""></path><path d="m101.953 67.016c2.479.3 4.748 1.26 6.641 2.698.066-1.071.111-2.145.111-3.227 0-5.16-.76-10.14-2.18-14.81-1.15 1.24-2.8 2.04-4.68 2.04-.63 0-1.25-.09-1.83-.28 1.27 4.11 1.95 8.5 1.95 13.05 0 .177-.01.352-.012.529z" fill="#d4fbff" style="--darkreader-inline-fill: var(--darkreader-background-d4fbff, #00474e);" data-darkreader-inline-fill=""></path><path d="m108.045 48.857c-.67 2.71-3.11 4.86-6.2 4.86-2.61 0-4.92-1.6-5.91-4.02-5.69-13.91-18.76-23.66-33.93-23.66s-28.24 9.75-33.93 23.66c-.99 2.42-3.3 4.02-5.91 4.02h-.01c-3.09 0-5.53-2.15-6.2-4.85.07-.29.16-.59.28-.88 7.58-18.61 25.24-31.69 45.77-31.69s38.19 13.08 45.76 31.69c.12.29.21.58.28.87z" fill="#0089ef" style="--darkreader-inline-fill: var(--darkreader-background-0089ef, #006ebf);" data-darkreader-inline-fill=""></path><path d="m108.045 48.857c-.67 2.71-3.11 4.86-6.2 4.86-2.61 0-4.92-1.6-5.91-4.02-5.69-13.91-18.76-23.66-33.93-23.66s-28.24 9.75-33.93 23.66c-.99 2.42-3.3 4.02-5.91 4.02h-.01c-3.09 0-5.53-2.15-6.2-4.85-.31-1.23-.25-2.57.28-3.88 7.58-18.61 25.24-31.69 45.77-31.69s38.19 13.08 45.76 31.69c.53 1.3.59 2.64.28 3.87z" fill="#fff" style="--darkreader-inline-fill: var(--darkreader-background-ffffff, #131b22);" data-darkreader-inline-fill=""></path><path d="m108.045 48.857c-.67 2.71-3.11 4.86-6.2 4.86-2.61 0-4.92-1.6-5.91-4.02-5.69-13.91-18.76-23.66-33.93-23.66s-28.24 9.75-33.93 23.66c-.99 2.42-3.3 4.02-5.91 4.02h-.01c-3.09 0-5.53-2.15-6.2-4.85.07-.29.16-.59.28-.88 7.58-18.61 25.24-31.69 45.77-31.69s38.19 13.08 45.76 31.69c.12.29.21.58.28.87z" fill="#0089ef" style="--darkreader-inline-fill: var(--darkreader-background-0089ef, #006ebf);" data-darkreader-inline-fill=""></path><path d="m9.948 82.976h-2.366c-1.673 0-3.029 1.356-3.029 3.029v3.209c0 1.673 1.356 3.029 3.029 3.029h2.366z" fill="#d4fbff" style="--darkreader-inline-fill: var(--darkreader-background-d4fbff, #00474e);" data-darkreader-inline-fill=""></path><path d="m25.41 107.027v-38.835c0-.455.093-.885.244-1.287h-1.94c-7.603 0-13.767 6.164-13.767 13.767v13.876c0 7.603 6.164 13.767 13.767 13.767h1.94c-.151-.403-.244-.833-.244-1.288z" fill="#0089ef" style="--darkreader-inline-fill: var(--darkreader-background-0089ef, #006ebf);" data-darkreader-inline-fill=""></path><path d="m25.41 107.027v-38.835c0-.455.093-.885.244-1.287h-1.94c-7.603 0-13.767 6.164-13.767 13.767v13.876c0 7.603 6.164 13.767 13.767 13.767h1.94c-.151-.403-.244-.833-.244-1.288z" fill="#0089ef" style="--darkreader-inline-fill: var(--darkreader-background-0089ef, #006ebf);" data-darkreader-inline-fill=""></path><path d="m29.089 64.513c-2.032 0-3.679 1.647-3.679 3.679v38.835c0 2.032 1.647 3.679 3.679 3.679s3.679-1.647 3.679-3.679v-38.835c0-2.032-1.647-3.679-3.679-3.679z" fill="#ffd7e5" style="--darkreader-inline-fill: var(--darkreader-background-ffd7e5, #4d001b);" data-darkreader-inline-fill=""></path><path d="m114.052 82.976h2.366c1.673 0 3.029 1.356 3.029 3.029v3.209c0 1.673-1.356 3.029-3.029 3.029h-2.366z" fill="#d4fbff" style="--darkreader-inline-fill: var(--darkreader-background-d4fbff, #00474e);" data-darkreader-inline-fill=""></path><path d="m98.59 107.027v-38.835c0-.455-.093-.885-.244-1.287h1.94c7.603 0 13.767 6.164 13.767 13.767v13.876c0 7.603-6.164 13.767-13.767 13.767h-1.94c.15-.403.244-.833.244-1.288z" fill="#0089ef" style="--darkreader-inline-fill: var(--darkreader-background-0089ef, #006ebf);" data-darkreader-inline-fill=""></path><path d="m94.911 64.513c-2.032 0-3.679 1.647-3.679 3.679v38.835c0 2.032 1.647 3.679 3.679 3.679s3.679-1.647 3.679-3.679v-38.835c0-2.032-1.647-3.679-3.679-3.679z" fill="#ffd7e5" style="--darkreader-inline-fill: var(--darkreader-background-ffd7e5, #4d001b);" data-darkreader-inline-fill=""></path><path d="m69.143 77.677c-.783 0-1.564-.307-2.148-.916-1.169-1.219-3.036-1.947-4.994-1.947-1.959 0-3.826.728-4.994 1.947-1.137 1.186-3.021 1.226-4.207.089s-1.226-3.021-.089-4.207c2.303-2.402 5.689-3.78 9.29-3.78s6.987 1.378 9.29 3.78c1.137 1.186 1.098 3.07-.089 4.207-.577.553-1.319.827-2.059.827z" fill="#6dc9f7" style="--darkreader-inline-fill: var(--darkreader-background-6dc9f7, #075e89);" data-darkreader-inline-fill=""></path><path d="m75.895 69.482c-.749 0-1.498-.281-2.076-.844-2.929-2.853-7.236-4.489-11.819-4.489s-8.89 1.636-11.819 4.489c-1.177 1.147-3.061 1.122-4.208-.055s-1.122-3.061.055-4.208c4.03-3.926 9.851-6.178 15.972-6.178s11.942 2.252 15.972 6.178c1.177 1.147 1.202 3.031.055 4.208-.584.599-1.358.899-2.132.899z" fill="#6dc9f7" style="--darkreader-inline-fill: var(--darkreader-background-6dc9f7, #075e89);" data-darkreader-inline-fill=""></path><path d="m82.642 61.292c-.737 0-1.476-.272-2.052-.821-4.661-4.44-11.437-6.987-18.59-6.987s-13.929 2.547-18.59 6.987c-1.19 1.134-3.074 1.088-4.207-.102-1.134-1.19-1.088-3.073.102-4.207 5.757-5.484 14.028-8.629 22.695-8.629 8.666 0 16.938 3.145 22.695 8.629 1.19 1.134 1.236 3.017.102 4.207-.585.613-1.37.923-2.155.923z" fill="#6dc9f7" style="--darkreader-inline-fill: var(--darkreader-background-6dc9f7, #075e89);" data-darkreader-inline-fill=""></path><path d="m74.987 86.171c-3.183-3.183-8.343-3.183-11.526 0l-1.461 1.462-1.462-1.462c-3.183-3.183-8.343-3.183-11.526 0-3.183 3.183-3.183 8.343 0 11.526l1.462 1.462 9.887 9.887c.905.905 2.373.905 3.278 0l9.887-9.887 1.462-1.462c3.182-3.183 3.182-8.344-.001-11.526z" fill="#fa759e" style="--darkreader-inline-fill: var(--darkreader-background-fa759e, #85052c);" data-darkreader-inline-fill=""></path><g fill="#3a2c60" style="--darkreader-inline-fill: var(--darkreader-background-3a2c60, #2e234d);" data-darkreader-inline-fill=""><path d="m74.304 29.338c.119.046.241.068.362.068.4 0 .778-.243.932-.638.2-.515-.055-1.094-.569-1.294-1.988-.772-4.053-1.37-6.138-1.777-.544-.107-1.067.248-1.173.79-.105.542.248 1.067.79 1.173 1.969.384 3.919.948 5.796 1.678z"></path><path d="m116.418 81.976h-1.366v-1.304c0-4.603-2.119-8.719-5.431-11.429.056-1.027.084-1.92.084-2.756 0-4.989-.704-9.896-2.081-14.598.635-.805 1.127-1.734 1.387-2.78.376-1.491.265-3.047-.322-4.502-7.985-19.629-26.307-32.313-46.677-32.313-20.382 0-38.712 12.684-46.697 32.315-.587 1.45-.699 3.006-.324 4.496.26 1.049.754 1.981 1.391 2.787-1.38 4.716-2.086 9.622-2.086 14.595 0 .842.028 1.734.084 2.756-3.312 2.71-5.431 6.826-5.431 11.429v1.304h-1.367c-2.222 0-4.029 1.807-4.029 4.029v3.209c0 2.222 1.808 4.029 4.029 4.029h1.366v1.304c0 8.143 6.624 14.767 14.767 14.767h1.318c.804 1.42 2.311 2.392 4.056 2.392 2.58 0 4.679-2.099 4.679-4.679v-38.835c0-2.58-2.099-4.679-4.679-4.679-1.745 0-3.252.972-4.056 2.392h-1.318c-.226 0-.446.024-.67.034.049-4.013.641-7.955 1.761-11.736 1.862-.721 3.398-2.173 4.19-4.121 5.728-14.001 18.687-23.048 33.015-23.048.518 0 1.033.011 1.547.035.546.012 1.02-.401 1.045-.953s-.401-1.02-.953-1.045c-.543-.025-1.09-.037-1.639-.037-15.144 0-28.829 9.535-34.867 24.293-.837 2.058-2.789 3.387-4.983 3.387-.301 0-.597-.027-.886-.075-.015-.002-.029-.004-.044-.007-.859-.149-1.652-.506-2.326-1.018-.047-.037-.094-.074-.14-.112-.149-.121-.287-.254-.422-.39-.039-.04-.082-.077-.12-.118-.012-.013-.028-.021-.04-.034-.59-.646-1.029-1.442-1.252-2.34-.271-1.079-.189-2.207.237-3.259 7.677-18.873 25.279-31.067 44.844-31.067 19.553 0 37.146 12.194 44.823 31.064.427 1.057.509 2.184.235 3.265-.598 2.408-2.748 4.09-5.229 4.09-2.185 0-4.137-1.329-4.974-3.388-3.364-8.225-9.319-15.121-16.767-19.418-.478-.276-1.09-.113-1.366.367-.276.478-.112 1.09.366 1.366 7.065 4.077 12.718 10.626 15.914 18.441.791 1.945 2.322 3.396 4.179 4.118 1.12 3.779 1.711 7.722 1.761 11.741-.224-.01-.444-.034-.67-.034h-1.318c-.804-1.42-2.311-2.392-4.056-2.392-2.58 0-4.68 2.099-4.68 4.679v38.835c0 2.58 2.1 4.679 4.68 4.679 1.745 0 3.252-.972 4.056-2.392h1.318c8.143 0 14.767-6.625 14.767-14.767v-1.304h1.366c2.222 0 4.028-1.807 4.028-4.029v-3.209c.001-2.223-1.805-4.03-4.027-4.03zm-107.471 9.267h-1.365c-1.119 0-2.029-.91-2.029-2.029v-3.209c0-1.119.91-2.029 2.029-2.029h1.365zm20.142-25.73c1.477 0 2.679 1.202 2.679 2.679v38.835c0 1.477-1.202 2.679-2.679 2.679-1.135 0-2.102-.713-2.491-1.713-.003-.01-.004-.021-.008-.031-.058-.156-.102-.31-.132-.464-.027-.154-.048-.31-.048-.471v-38.835c0-.163.02-.32.048-.475.03-.151.073-.304.132-.46.004-.011.004-.022.008-.032.389-.999 1.356-1.712 2.491-1.712zm-4.669 2.392c-.007.096-.01.191-.01.287v38.835c0 .096.003.191.01.287h-.705c-7.039 0-12.767-5.727-12.767-12.767v-13.875c0-7.04 5.728-12.767 12.767-12.767zm-1.84-13.199c-.998 3.706-1.517 7.55-1.544 11.454-.007.001-.015.004-.022.005-.339.063-.672.144-1.003.23-.099.026-.199.049-.298.077-.32.09-.634.193-.944.304-.102.036-.204.073-.305.112-.309.118-.613.245-.911.383-.095.044-.188.091-.283.136-.301.147-.598.299-.887.465-.021.012-.044.022-.065.034-.017-.498-.024-.965-.024-1.418 0-4.434.578-8.813 1.719-13.04.12.083.255.141.38.216.125.074.248.148.377.215.237.123.482.228.732.325.125.048.249.097.377.138.251.081.507.143.768.197.145.03.289.061.437.083.253.037.508.054.766.065.108.005.211.027.32.027.062 0 .121-.012.182-.014.078-.002.152.01.228.006zm80.384 11.453c-.027-3.907-.546-7.751-1.542-11.454.077.004.153-.008.229-.006.064.002.125.014.19.014.113 0 .22-.023.332-.028.24-.011.478-.027.716-.06.175-.025.345-.061.516-.098.23-.049.457-.105.681-.176.153-.049.302-.105.451-.164.234-.091.462-.19.686-.305.131-.067.256-.141.382-.216.128-.076.265-.135.388-.219 1.138 4.214 1.713 8.592 1.713 13.038 0 .452-.008.919-.024 1.418-.021-.012-.043-.022-.064-.034-.291-.168-.591-.321-.894-.469-.09-.044-.18-.089-.271-.131-.303-.14-.611-.269-.925-.388-.095-.036-.191-.071-.287-.105-.316-.113-.634-.218-.959-.309-.094-.026-.188-.048-.283-.073-.334-.087-.669-.169-1.012-.232-.008.001-.016-.001-.023-.003zm-8.053 43.547c-1.478 0-2.68-1.202-2.68-2.679v-38.835c0-1.478 1.202-2.679 2.68-2.679 1.132 0 2.098.709 2.489 1.705.004.012.004.025.009.037.059.159.103.314.133.466.027.153.048.309.048.47v38.835c0 .161-.02.317-.048.47-.03.152-.074.307-.133.466-.004.012-.005.024-.009.036-.39.998-1.356 1.708-2.489 1.708zm18.141-15.159c0 7.04-5.728 12.767-12.767 12.767h-.705c.007-.096.01-.192.01-.287v-38.835c0-.095-.003-.191-.01-.287h.705c7.039 0 12.767 5.727 12.767 12.767zm5.394-5.333c0 1.119-.91 2.029-2.028 2.029h-1.366v-7.267h1.366c1.118 0 2.028.91 2.028 2.029z"></path><path d="m54.942 78.676c1.062-.022 2.051-.457 2.785-1.223.984-1.026 2.582-1.639 4.273-1.639s3.288.613 4.271 1.638c.757.79 1.776 1.225 2.871 1.225 1.03 0 2.008-.393 2.751-1.106.767-.735 1.201-1.725 1.224-2.786s-.37-2.068-1.105-2.835c-2.49-2.598-6.14-4.088-10.012-4.088s-7.521 1.49-10.013 4.088c-1.517 1.583-1.464 4.104.118 5.622.746.715 1.72 1.105 2.75 1.105.029 0 .057 0 .087-.001zm-1.511-5.341c2.116-2.207 5.24-3.472 8.569-3.472 3.33 0 6.453 1.266 8.568 3.472.365.381.561.881.549 1.409-.011.527-.227 1.019-.608 1.385-.761.73-2.062.704-2.793-.06-1.354-1.412-3.491-2.254-5.716-2.254-2.226 0-4.362.843-5.717 2.255-.365.381-.856.597-1.384.608-.557.021-1.029-.185-1.409-.549-.786-.755-.812-2.008-.059-2.794z"></path><path d="m62 57.197c-6.379 0-12.455 2.355-16.669 6.461-.762.741-1.188 1.734-1.202 2.796s.388 2.065 1.128 2.826c.741.761 1.734 1.188 2.796 1.201 1.092.022 2.067-.387 2.827-1.128 2.742-2.672 6.796-4.205 11.12-4.205s8.378 1.533 11.12 4.206c.747.727 1.731 1.128 2.774 1.128 1.082 0 2.094-.427 2.848-1.202 1.53-1.57 1.497-4.092-.072-5.622-4.216-4.106-10.292-6.461-16.67-6.461zm15.31 10.688c-.735.756-2.038.773-2.793.037-3.113-3.033-7.675-4.773-12.517-4.773-4.841 0-9.403 1.74-12.517 4.772-.378.369-.859.557-1.404.561-.527-.007-1.021-.219-1.39-.598-.368-.378-.567-.876-.561-1.404.007-.528.219-1.021.598-1.39 3.844-3.746 9.411-5.894 15.273-5.894 5.861 0 11.429 2.148 15.273 5.894.782.762.798 2.015.038 2.795z"></path><path d="m62 46.532c-8.92 0-17.444 3.246-23.385 8.905-.77.732-1.207 1.721-1.232 2.782s.363 2.07 1.097 2.839c1.51 1.585 4.032 1.648 5.62.136 4.478-4.265 11.001-6.711 17.9-6.711s13.423 2.446 17.9 6.711c.742.708 1.716 1.097 2.741 1.097 1.099 0 2.121-.438 2.88-1.234 1.512-1.588 1.45-4.109-.138-5.621-5.94-5.658-14.463-8.904-23.383-8.904zm22.073 13.147c-.729.764-2.028.796-2.794.068-4.844-4.616-11.872-7.263-19.279-7.263s-14.435 2.647-19.279 7.263c-.789.752-2.043.72-2.794-.068-.363-.382-.558-.883-.544-1.411.013-.527.229-1.019.611-1.382 5.573-5.309 13.594-8.354 22.006-8.354 8.411 0 16.432 3.045 22.005 8.354.789.751.819 2.004.068 2.793z"></path><path d="m69.225 82.784c-2.444 0-4.742.952-6.47 2.68l-.755.755-.755-.755c-1.728-1.729-4.025-2.68-6.47-2.68s-4.742.952-6.471 2.68c-3.567 3.567-3.567 9.372 0 12.94l11.35 11.348c.626.627 1.459.973 2.346.973.886 0 1.719-.345 2.346-.972l11.349-11.349c3.567-3.567 3.567-9.372 0-12.939-1.728-1.73-4.026-2.681-6.47-2.681zm5.055 14.205-11.349 11.349c-.499.499-1.366.497-1.863 0l-11.35-11.349c-2.787-2.788-2.787-7.324 0-10.111 1.351-1.351 3.146-2.094 5.057-2.094s3.705.744 5.056 2.094l1.462 1.462c.391.391 1.023.391 1.414 0l1.462-1.462c1.351-1.351 3.146-2.094 5.056-2.094s3.705.744 5.056 2.094c2.787 2.788 2.787 7.324-.001 10.111z"></path></g></svg></svg><style>@media (prefers-color-scheme: light) { :root { filter: none; } }
@media (prefers-color-scheme: dark) { :root { filter: none; } }
</style><style class="darkreader darkreader--sync" media="screen"></style><style class="darkreader darkreader--sync" media="screen"></style></svg>